<svg id="visual" viewBox="0 0 960 540" width="960" height="540" xmlns="http://www.w3.org/2000/svg" xmlns:xlink="http://www.w3.org/1999/xlink" version="1.1"><rect x="0" y="0" width="960" height="540" fill="#fef6f8"></rect><defs><linearGradient id="grad1_0" x1="43.8%" y1="0%" x2="100%" y2="100%"><stop offset="14.444444444444446%" stop-color="#fef6f8" stop-opacity="1"></stop><stop offset="85.55555555555554%" stop-color="#fef6f8" stop-opacity="1"></stop></linearGradient></defs><defs><linearGradient id="grad2_0" x1="0%" y1="0%" x2="56.3%" y2="100%"><stop offset="14.444444444444446%" stop-color="#fef6f8" stop-opacity="1"></stop><stop offset="85.55555555555554%" stop-color="#fef6f8" stop-opacity="1"></stop></linearGradient></defs><g transform="translate(960, 0)"><path d="M0 378C-23.9 317 -47.8 256 -102.9 248.5C-158 241 -244.3 287 -267.3 267.3C-290.2 247.6 -249.9 162.3 -257.8 106.8C-265.7 51.3 -321.8 25.6 -378 0L0 0Z" fill="#b61249"></path></g><g transform="translate(0, 540)"><path d="M0 -378C26.1 -313.6 52.3 -249.1 98 -236.5C143.7 -223.9 208.9 -263.2 256 -256C303 -248.8 331.9 -195.1 349.2 -144.7C366.5 -94.2 372.3 -47.1 378 0L0 0Z" fill="#b61249"></path></g></svg>