<svg id="visual" viewBox="0 0 960 540" width="960" height="540" xmlns="http://www.w3.org/2000/svg" xmlns:xlink="http://www.w3.org/1999/xlink" version="1.1"><rect x="0" y="0" width="960" height="540" fill="#fffdf9"></rect><defs><linearGradient id="grad1_0" x1="43.8%" y1="0%" x2="100%" y2="100%"><stop offset="14.444444444444446%" stop-color="#fffdf9" stop-opacity="1"></stop><stop offset="85.55555555555554%" stop-color="#fffdf9" stop-opacity="1"></stop></linearGradient></defs><defs><linearGradient id="grad2_0" x1="0%" y1="0%" x2="56.3%" y2="100%"><stop offset="14.444444444444446%" stop-color="#fffdf9" stop-opacity="1"></stop><stop offset="85.55555555555554%" stop-color="#fffdf9" stop-opacity="1"></stop></linearGradient></defs><g transform="translate(960, 0)"><path d="M0 378C-30 330.2 -60 282.4 -112.9 272.5C-165.8 262.7 -241.5 290.8 -267.3 267.3C-293.1 243.8 -268.9 168.7 -279 115.6C-289.1 62.4 -333.6 31.2 -378 0L0 0Z" fill="#ffe6b9"></path></g><g transform="translate(0, 540)"><path d="M0 -378C57.5 -378.2 115 -378.5 142 -342.8C169 -307 165.5 -235.3 201.5 -201.5C237.6 -167.7 313.2 -171.9 349.2 -144.7C385.2 -117.4 381.6 -58.7 378 0L0 0Z" fill="#ffe6b9"></path></g></svg>